<?xml version="1.0" encoding="UTF-8"?>
<svg version="1.1" xmlns="http://www.w3.org/2000/svg" width="512" height="512">
<path d="M0 0 C1.01790619 0.00215515 2.03581238 0.0043103 3.08456421 0.00653076 C17.69363523 0.05620146 32.02575853 0.30709809 46.375 3.3125 C47.34985352 3.51117676 48.32470703 3.70985352 49.32910156 3.91455078 C83.27715776 11.01587561 115.69545236 23.64250235 144.375 43.3125 C145.38796143 42.66764648 145.38796143 42.66764648 146.42138672 42.00976562 C158.82031713 34.18099437 171.86128238 31.45450491 186.44921875 33.80859375 C199.77931759 37.17439617 210.48679763 44.15399948 218.25 55.625 C225.6106362 68.24074762 227.11954335 81.03784793 224.90234375 95.3671875 C223.17704402 101.83447868 219.71180144 107.55801608 216.375 113.3125 C216.045 113.9725 215.715 114.6325 215.375 115.3125 C216.5764678 117.53320784 217.83270342 119.62478598 219.1875 121.75 C235.39723173 148.10041698 246.47711447 176.40971019 252.6875 206.75 C252.83485596 207.46889404 252.98221191 208.18778809 253.1340332 208.9284668 C256.10789102 224.57475679 256.74799808 240.04818085 256.6875 255.9375 C256.68534485 256.95573853 256.6831897 257.97397705 256.68096924 259.02307129 C256.63126609 273.6472884 256.31707988 287.94054638 253.375 302.3125 C253.18164062 303.30910645 252.98828125 304.30571289 252.7890625 305.33251953 C244.67028127 346.42132055 227.30084885 383.51549494 201.375 416.3125 C200.56289063 417.35019531 199.75078125 418.38789063 198.9140625 419.45703125 C186.24907313 435.01858759 171.69874403 449.61464417 155.375 461.3125 C154.02974408 462.30180622 152.68470229 463.29140366 151.33984375 464.28125 C120.03865227 487.07723181 84.47260691 502.31320592 46.375 509.3125 C45.56901367 509.47331055 44.76302734 509.63412109 43.93261719 509.79980469 C15.97889422 515.22499702 -16.72484329 514.79347109 -44.625 509.3125 C-45.52057617 509.15152832 -46.41615234 508.99055664 -47.33886719 508.82470703 C-89.75082702 501.15163609 -130.84962053 482.33971446 -163.42578125 453.95703125 C-165.64664746 452.29631247 -166.87408079 451.51286223 -169.625 451.3125 C-171.8152848 452.03208685 -171.8152848 452.03208685 -174.0625 453.1875 C-184.80391552 457.7368054 -196.39069668 457.17861568 -207.10546875 452.93359375 C-219.16772536 447.56232276 -226.66345393 440.10218547 -232.2421875 428.0625 C-236.36789623 416.87413734 -236.9420858 405.13742035 -232.25390625 394.078125 C-230.32273908 390.12910485 -228.41992557 386.34557476 -225.734375 382.85546875 C-224.25358169 380.27162708 -224.25358169 380.27162708 -225.73046875 377.421875 C-226.76107422 375.75898437 -226.76107422 375.75898437 -227.8125 374.0625 C-241.62314547 350.27196514 -249.52554456 322.3923985 -253.625 295.3125 C-253.80232666 294.19367432 -253.97965332 293.07484863 -254.16235352 291.92211914 C-255.84376341 280.20014053 -255.98234341 268.57751024 -255.9375 256.75 C-255.93426727 255.21939438 -255.93426727 255.21939438 -255.93096924 253.65786743 C-255.88133352 239.03039476 -255.63419712 224.67986162 -252.625 210.3125 C-252.42632324 209.33764648 -252.22764648 208.36279297 -252.02294922 207.35839844 C-245.34523575 175.43542665 -233.42982457 131.69774713 -208.6796875 108.48828125 C-206.06456289 106.99179359 -205.07372243 107.42003565 -202.1875 108.0625 C-199.06341531 108.23061218 -197.3066245 107.88670186 -194.89306641 105.85351562 C-190.79788696 101.62694595 -187.15759099 97.0137301 -183.625 92.3125 C-183.93824219 91.72210938 -184.25148438 91.13171875 -184.57421875 90.5234375 C-186.63900877 86.17893507 -187.07616509 82.61586582 -185.5 78.0625 C-183.36825381 74.93593892 -182.16773384 73.65086612 -178.625 72.3125 C-175.21162003 72.33289869 -171.9480721 72.8364605 -168.73388672 73.99291992 C-166.59846053 74.52739177 -166.59846053 74.52739177 -164.77807617 73.35961914 C-162.76539119 71.72363566 -160.77626943 70.06955784 -158.8125 68.375 C-158.10673828 67.81748047 -157.40097656 67.25996094 -156.67382812 66.68554688 C-152.88580689 63.60582457 -152.88580689 63.60582457 -151.43164062 59.17553711 C-151.73406618 56.75070838 -151.73406618 56.75070838 -152.625 53.3125 C-149.2123287 43.31824834 -134.34166789 37.25141128 -125.625 32.3125 C-124.91053711 31.90596191 -124.19607422 31.49942383 -123.45996094 31.08056641 C-100.33261858 18.06061607 -75.16550572 9.31746505 -49.1875 4 C-48.46860596 3.85264404 -47.74971191 3.70528809 -47.0090332 3.5534668 C-31.36274391 0.57960912 -15.88931954 -0.06050362 0 0 Z " fill="#E8EEEE" transform="translate(255.625,-0.3125)"/>
<path d="M0 0 C1.01790619 0.00215515 2.03581238 0.0043103 3.08456421 0.00653076 C17.69363523 0.05620146 32.02575853 0.30709809 46.375 3.3125 C47.34985352 3.51117676 48.32470703 3.70985352 49.32910156 3.91455078 C83.27715776 11.01587561 115.69545236 23.64250235 144.375 43.3125 C145.38796143 42.66764648 145.38796143 42.66764648 146.42138672 42.00976562 C158.82031713 34.18099437 171.86128238 31.45450491 186.44921875 33.80859375 C199.77931759 37.17439617 210.48679763 44.15399948 218.25 55.625 C225.6106362 68.24074762 227.11954335 81.03784793 224.90234375 95.3671875 C223.17704402 101.83447868 219.71180144 107.55801608 216.375 113.3125 C216.045 113.9725 215.715 114.6325 215.375 115.3125 C216.5764678 117.53320784 217.83270342 119.62478598 219.1875 121.75 C235.39723173 148.10041698 246.47711447 176.40971019 252.6875 206.75 C252.83485596 207.46889404 252.98221191 208.18778809 253.1340332 208.9284668 C256.10789102 224.57475679 256.74799808 240.04818085 256.6875 255.9375 C256.68534485 256.95573853 256.6831897 257.97397705 256.68096924 259.02307129 C256.63126609 273.6472884 256.31707988 287.94054638 253.375 302.3125 C253.18164062 303.30910645 252.98828125 304.30571289 252.7890625 305.33251953 C244.67028127 346.42132055 227.30084885 383.51549494 201.375 416.3125 C200.56289063 417.35019531 199.75078125 418.38789063 198.9140625 419.45703125 C186.24907313 435.01858759 171.69874403 449.61464417 155.375 461.3125 C154.02974408 462.30180622 152.68470229 463.29140366 151.33984375 464.28125 C120.03865227 487.07723181 84.47260691 502.31320592 46.375 509.3125 C45.56901367 509.47331055 44.76302734 509.63412109 43.93261719 509.79980469 C15.97889422 515.22499702 -16.72484329 514.79347109 -44.625 509.3125 C-45.52057617 509.15152832 -46.41615234 508.99055664 -47.33886719 508.82470703 C-89.75082702 501.15163609 -130.84962053 482.33971446 -163.42578125 453.95703125 C-165.64664746 452.29631247 -166.87408079 451.51286223 -169.625 451.3125 C-171.8152848 452.03208685 -171.8152848 452.03208685 -174.0625 453.1875 C-184.80391552 457.7368054 -196.39069668 457.17861568 -207.10546875 452.93359375 C-219.16772536 447.56232276 -226.66345393 440.10218547 -232.2421875 428.0625 C-236.36789623 416.87413734 -236.9420858 405.13742035 -232.25390625 394.078125 C-230.32273908 390.12910485 -228.41992557 386.34557476 -225.734375 382.85546875 C-224.25358169 380.27162708 -224.25358169 380.27162708 -225.73046875 377.421875 C-226.76107422 375.75898437 -226.76107422 375.75898437 -227.8125 374.0625 C-241.62314547 350.27196514 -249.52554456 322.3923985 -253.625 295.3125 C-253.80232666 294.19367432 -253.97965332 293.07484863 -254.16235352 291.92211914 C-255.84376341 280.20014053 -255.98234341 268.57751024 -255.9375 256.75 C-255.93426727 255.21939438 -255.93426727 255.21939438 -255.93096924 253.65786743 C-255.88133352 239.03039476 -255.63419712 224.67986162 -252.625 210.3125 C-252.42632324 209.33764648 -252.22764648 208.36279297 -252.02294922 207.35839844 C-245.49233542 176.13864019 -233.63971586 130.72951526 -208.65234375 108.5625 C-205.38486365 106.54786873 -202.33967089 106.60931127 -198.625 107.3125 C-195.31566824 109.83804266 -192.90509828 112.74253737 -192.16015625 116.91796875 C-192.84628143 121.92841232 -195.36455743 125.41705118 -198.0625 129.625 C-199.17368669 131.42125459 -200.28172016 133.21946333 -201.38671875 135.01953125 C-201.93763184 135.91365723 -202.48854492 136.8077832 -203.05615234 137.72900391 C-218.49418723 163.15155061 -228.23460336 191.94763633 -232.625 221.3125 C-232.89207764 223.08536377 -232.89207764 223.08536377 -233.16455078 224.89404297 C-234.57536689 234.80920612 -234.94911391 244.55684829 -234.875 254.5625 C-234.87156586 255.32696442 -234.86813171 256.09142883 -234.86459351 256.87905884 C-234.80212893 268.77848231 -234.52699957 280.5425353 -232.625 292.3125 C-232.48497559 293.19744141 -232.34495117 294.08238281 -232.20068359 294.99414062 C-228.15282994 319.3905504 -220.49622104 347.50566845 -206.625 368.3125 C-205.66980469 368.15523438 -204.71460938 367.99796875 -203.73046875 367.8359375 C-188.65572372 365.7078273 -175.46993928 366.48216312 -162.8125 375.5625 C-153.58567788 383.26823369 -147.21659573 393.3357421 -145.625 405.3125 C-144.90564012 414.81404508 -146.56252198 422.82027233 -150.91796875 431.26953125 C-151.79301459 433.79797863 -151.52931834 434.81760334 -150.625 437.3125 C-149.24591849 438.85450653 -149.24591849 438.85450653 -147.44140625 440.16015625 C-146.77028809 440.67747314 -146.09916992 441.19479004 -145.40771484 441.7277832 C-144.67504395 442.27136475 -143.94237305 442.81494629 -143.1875 443.375 C-142.04982178 444.23001099 -142.04982178 444.23001099 -140.88916016 445.10229492 C-132.80364725 451.07800209 -124.33148269 456.30023052 -115.625 461.3125 C-115.01543457 461.67150391 -114.40586914 462.03050781 -113.77783203 462.40039062 C-97.69003549 471.83039073 -79.6853846 478.7806606 -61.625 483.3125 C-59.89056641 483.81330078 -59.89056641 483.81330078 -58.12109375 484.32421875 C-42.56305885 488.76230082 -26.78063691 490.87866503 -10.625 491.3125 C-9.67189941 491.34504883 -8.71879883 491.37759766 -7.73681641 491.41113281 C15.83678676 492.14078318 39.71532838 490.17034771 62.375 483.3125 C63.09059082 483.10399414 63.80618164 482.89548828 64.54345703 482.68066406 C90.00265248 475.24629845 113.74101978 464.75181163 135.375 449.3125 C136.39851563 448.58417969 137.42203125 447.85585938 138.4765625 447.10546875 C155.89585945 434.35123418 172.29041218 419.53897173 185.375 402.3125 C185.80232422 401.75626953 186.22964844 401.20003906 186.66992188 400.62695312 C193.60249577 391.57035659 199.75471561 382.23295547 205.375 372.3125 C205.7162793 371.72033691 206.05755859 371.12817383 206.40917969 370.51806641 C220.16496577 346.52771222 229.16918547 319.16773332 233.01660156 291.84912109 C233.33605774 289.58811997 233.68993208 287.33604655 234.0546875 285.08203125 C241.85878378 230.93443173 227.64063689 174.05360655 198.375 128.3125 C197.38242187 128.60125 196.38984375 128.89 195.3671875 129.1875 C180.31247324 133.38273957 166.71398735 134.19032153 152.3984375 126.76953125 C140.0312872 119.32539257 131.67978293 109.13311888 127.375 95.3125 C126.6875 92.125 126.6875 92.125 126.375 88.3125 C126.29894531 87.39984375 126.22289062 86.4871875 126.14453125 85.546875 C125.7106508 76.02495802 128.19892989 68.14878076 131.375 59.3125 C130.70339844 59.0753125 130.03179687 58.838125 129.33984375 58.59375 C126.39244833 57.32004025 123.74058877 55.77489843 121.01220703 54.08959961 C95.8581924 38.60587985 67.07183393 28.13357461 37.875 23.6875 C37.05588135 23.56270264 36.2367627 23.43790527 35.39282227 23.30932617 C2.11979093 18.37841279 -34.44641046 20.09142223 -66.625 30.3125 C-67.44726074 30.5698291 -68.26952148 30.8271582 -69.11669922 31.09228516 C-91.95258404 38.34391722 -112.76867322 48.59681966 -132.77539062 61.72338867 C-133.47728516 62.17689697 -134.17917969 62.63040527 -134.90234375 63.09765625 C-135.53003662 63.50894775 -136.15772949 63.92023926 -136.80444336 64.34399414 C-139.89893644 65.990213 -142.22792482 65.8786792 -145.625 65.3125 C-149 63.8125 -149 63.8125 -151.625 61.3125 C-153.01452786 57.5941545 -153.02677107 54.48911527 -151.75 50.75 C-144.70914915 42.67372991 -134.84365251 37.53583848 -125.625 32.3125 C-124.91053711 31.90596191 -124.19607422 31.49942383 -123.45996094 31.08056641 C-100.33261858 18.06061607 -75.16550572 9.31746505 -49.1875 4 C-48.46860596 3.85264404 -47.74971191 3.70528809 -47.0090332 3.5534668 C-31.36274391 0.57960912 -15.88931954 -0.06050362 0 0 Z " fill="#010101" transform="translate(255.625,-0.3125)"/>
<path d="M0 0 C0.87348083 -0.00807175 1.74696167 -0.01614349 2.64691162 -0.02445984 C4.49245266 -0.03822349 6.33801832 -0.04897977 8.18359375 -0.05688477 C10.02937545 -0.06830828 11.87512671 -0.08860366 13.72070312 -0.1184082 C27.21785162 -0.33551726 39.62455324 1.00560245 52.734375 4.23828125 C53.78463867 4.49520752 54.83490234 4.75213379 55.91699219 5.0168457 C58.29391554 5.64118124 60.63846479 6.31936471 62.984375 7.05078125 C63.80317139 7.30230957 64.62196777 7.55383789 65.46557617 7.81298828 C97.87407207 18.07573109 127.97587127 38.25595324 148.734375 65.23828125 C149.54519531 66.2334375 150.35601562 67.22859375 151.19140625 68.25390625 C159.82771247 78.93657283 166.1516066 90.68211346 172.046875 103.05078125 C172.36027832 103.70723633 172.67368164 104.36369141 172.99658203 105.04003906 C177.49078198 114.72022387 180.51118004 124.60663904 182.921875 134.98828125 C183.18162109 136.07238281 183.44136719 137.15648437 183.70898438 138.2734375 C185.66731642 146.56219172 186.89008467 154.44509365 186.90234375 162.9609375 C186.90567215 163.78347519 186.90900055 164.60601288 186.91242981 165.45347595 C186.91746999 167.18894903 186.91983904 168.92443172 186.91967773 170.65991211 C186.92184846 173.26888742 186.93999172 175.87742829 186.95898438 178.48632812 C187.05971042 207.95483722 179.27651113 240.42507705 162.734375 265.23828125 C163.12282172 268.5678246 164.69233186 271.29764085 166.234375 274.23828125 C171.17533042 283.66056833 171.11866047 295.3247641 169.05078125 305.65234375 C167.0129609 311.65588088 163.89345696 316.49227289 159.734375 321.23828125 C159.25613281 321.83253906 158.77789062 322.42679687 158.28515625 323.0390625 C152.79653374 329.27424828 143.05778115 334.89258085 134.734375 336.23828125 C124.41064867 336.83979918 114.77985293 336.32427333 105.62109375 331.23828125 C101.24068766 328.70475504 101.24068766 328.70475504 96.39770508 328.86572266 C95.60775146 329.26968262 94.81779785 329.67364258 94.00390625 330.08984375 C92.67456055 330.74919922 92.67456055 330.74919922 91.31835938 331.421875 C90.40376953 331.89753906 89.48917969 332.37320312 88.546875 332.86328125 C75.53746638 339.43823075 62.90997123 343.9375423 48.734375 347.23828125 C48.03328613 347.40779297 47.33219727 347.57730469 46.60986328 347.75195312 C21.31190374 353.62414985 -7.40419626 351.86041236 -32.265625 345.23828125 C-33.63382666 344.89987544 -35.00228744 344.56251421 -36.37109375 344.2265625 C-47.91484371 341.19008221 -58.87118123 336.65398111 -69.453125 331.17578125 C-70.07695068 330.85963867 -70.70077637 330.54349609 -71.34350586 330.21777344 C-75.26031415 328.11977147 -77.85909475 325.98242176 -80.265625 322.23828125 C-81.03114187 319.45074397 -80.90091625 317.05171395 -80.265625 314.23828125 C-78.328125 311.23828125 -78.328125 311.23828125 -75.265625 309.23828125 C-68.03281231 307.69686215 -63.10325419 310.56308889 -56.84350586 313.88818359 C-45.07406833 320.09119703 -32.27954793 324.51807781 -19.265625 327.23828125 C-18.00407593 327.50680908 -18.00407593 327.50680908 -16.71704102 327.78076172 C-7.68107945 329.49652309 1.1980804 329.59399044 10.359375 329.55078125 C11.15807007 329.54895844 11.95676514 329.54713562 12.77966309 329.54525757 C38.78451823 329.44516867 62.66027274 323.48168245 85.734375 311.23828125 C85.59435059 310.6973584 85.45432617 310.15643555 85.31005859 309.59912109 C82.40245316 297.62163769 81.51721597 283.27878195 87.734375 272.23828125 C94.8087352 261.17004174 103.98896832 254.70344239 116.046875 249.92578125 C127.06612063 247.87134562 136.31902403 249.74047223 146.734375 253.23828125 C147.12496094 251.97757812 147.12496094 251.97757812 147.5234375 250.69140625 C148.81911878 246.99662479 150.4112768 243.50890725 152.109375 239.98828125 C161.9894315 219.48497816 166.33587674 198.66322033 166.234375 175.98828125 C166.23177673 174.90814255 166.23177673 174.90814255 166.22912598 173.80618286 C166.1433683 160.0391253 165.11395377 146.24074975 161.171875 132.98828125 C160.9150293 132.11405518 160.65818359 131.2398291 160.39355469 130.33911133 C148.52314471 91.64226897 121.48432392 58.20738711 85.92504883 38.82617188 C62.43009254 26.57872186 39.06119148 20.79847754 12.671875 20.80078125 C11.89140808 20.80028778 11.11094116 20.79979431 10.30682373 20.79928589 C-3.59025351 20.84193293 -17.1798541 21.89997806 -30.578125 25.86328125 C-31.45476807 26.1169043 -32.33141113 26.37052734 -33.23461914 26.63183594 C-40.94887217 28.95799276 -48.20669804 32.06172414 -55.48046875 35.50390625 C-58.67245303 37.01036223 -61.88668171 38.20186046 -65.265625 39.23828125 C-64.976875 39.86992188 -64.688125 40.5015625 -64.390625 41.15234375 C-60.21264385 51.22011776 -59.64716218 61.57662644 -63.29296875 71.9375 C-68.67673193 84.6725864 -76.44008746 93.21817568 -89.33984375 98.49609375 C-100.85403789 102.46842128 -111.51699622 101.87524803 -123.265625 99.23828125 C-135.89773308 123.65617752 -142.71062274 147.05841929 -142.703125 174.61328125 C-142.7041925 175.4494397 -142.70526001 176.28559814 -142.70635986 177.14709473 C-142.68078774 191.06032006 -141.32996054 203.87131316 -137.265625 217.23828125 C-137.04100586 218.02992676 -136.81638672 218.82157227 -136.58496094 219.63720703 C-133.8121415 229.37032795 -130.07797432 238.28547724 -125.16113281 247.13989258 C-122.71053272 251.68507211 -121.6436081 254.93817891 -122.265625 260.23828125 C-124.62673611 264.56698495 -124.62673611 264.56698495 -127.265625 266.23828125 C-130.77303513 267.0950093 -133.81175347 267.3392028 -137.265625 266.23828125 C-141.52308648 262.01351917 -144.05867922 257.26201217 -146.578125 251.86328125 C-146.95984863 251.04964111 -147.34157227 250.23600098 -147.73486328 249.39770508 C-158.37702779 226.00295095 -163.44591413 202.7515159 -163.50585938 177.18237305 C-163.51551032 174.70521745 -163.54659334 172.2289132 -163.578125 169.75195312 C-163.650196 158.92417826 -162.55650031 148.81632479 -160.265625 138.23828125 C-160.06146973 137.29235107 -159.85731445 136.3464209 -159.64697266 135.37182617 C-159.12557162 133.10457704 -158.55917725 130.85923958 -157.953125 128.61328125 C-157.74147705 127.8246167 -157.5298291 127.03595215 -157.31176758 126.22338867 C-154.12419439 114.73583409 -149.38673035 104.06767482 -143.89331055 93.51489258 C-141.38889094 89.08217112 -141.38889094 89.08217112 -140.265625 84.23828125 C-141.39280558 81.40640259 -141.39280558 81.40640259 -143.078125 78.48828125 C-148.52770926 67.98107819 -150.30292226 57.48751613 -147.390625 45.6953125 C-142.90953553 33.12172923 -134.94763817 24.13759475 -123.140625 17.92578125 C-111.71046588 12.71398658 -100.93102766 13.12092584 -89.14453125 17.078125 C-86.67931925 18.07156864 -84.56728544 19.13838774 -82.328125 20.55078125 C-78.52673465 22.64542491 -77.40867145 22.29639743 -73.265625 21.23828125 C-70.81113236 20.08817613 -68.45719411 18.89943459 -66.078125 17.61328125 C-45.74051021 7.10642299 -22.98675339 0.20843058 0 0 Z " fill="#020303" transform="translate(244.265625,82.76171875)"/>
<path d="M0 0 C1.21171875 -0.01160156 2.4234375 -0.02320313 3.671875 -0.03515625 C28.47858336 0.0441829 50.90949772 10.26408344 68.625 27.375 C87.63840224 46.98767853 94.96715801 70.63273282 95.07592773 97.43359375 C94.74342729 118.7383662 86.0698214 139.69129793 71.625 155.375 C70.81546875 156.27605469 70.0059375 157.17710937 69.171875 158.10546875 C54.63620947 173.51242417 33.23031707 185.07584272 11.86987305 186.56738281 C9.01440218 186.64219211 6.16879373 186.65274726 3.3125 186.625 C2.3021167 186.61823242 1.2917334 186.61146484 0.25073242 186.60449219 C-22.28098561 186.29323562 -43.63808199 178.78984213 -60.375 163.375 C-61.27605469 162.56546875 -62.17710937 161.7559375 -63.10546875 160.921875 C-70.30434158 154.13011084 -75.42577332 146.88807145 -80.375 138.375 C-80.85582031 137.59125 -81.33664063 136.8075 -81.83203125 136 C-92.74541184 116.5984345 -95.03344031 91.21826099 -89.6875 69.8125 C-88.96948735 67.64841993 -88.2021907 65.49974475 -87.375 63.375 C-87.00117188 62.34117187 -86.62734375 61.30734375 -86.2421875 60.2421875 C-76.71743413 35.57875327 -58.84233168 18.17481966 -35.2421875 6.875 C-23.58644477 1.76229823 -12.70027179 -0.12082711 0 0 Z " fill="#FDBF34" transform="translate(254.375,164.625)"/>
<path d="M0 0 C1.21171875 -0.01160156 2.4234375 -0.02320313 3.671875 -0.03515625 C28.47858336 0.0441829 50.90949772 10.26408344 68.625 27.375 C87.63840224 46.98767853 94.96715801 70.63273282 95.07592773 97.43359375 C94.74342729 118.7383662 86.0698214 139.69129793 71.625 155.375 C70.81546875 156.27605469 70.0059375 157.17710937 69.171875 158.10546875 C54.63620947 173.51242417 33.23031707 185.07584272 11.86987305 186.56738281 C9.01440218 186.64219211 6.16879373 186.65274726 3.3125 186.625 C2.3021167 186.61823242 1.2917334 186.61146484 0.25073242 186.60449219 C-22.28098561 186.29323562 -43.63808199 178.78984213 -60.375 163.375 C-61.27605469 162.56546875 -62.17710937 161.7559375 -63.10546875 160.921875 C-70.30434158 154.13011084 -75.42577332 146.88807145 -80.375 138.375 C-80.85582031 137.59125 -81.33664063 136.8075 -81.83203125 136 C-92.74541184 116.5984345 -95.03344031 91.21826099 -89.6875 69.8125 C-88.96948735 67.64841993 -88.2021907 65.49974475 -87.375 63.375 C-87.00117188 62.34117187 -86.62734375 61.30734375 -86.2421875 60.2421875 C-76.71743413 35.57875327 -58.84233168 18.17481966 -35.2421875 6.875 C-23.58644477 1.76229823 -12.70027179 -0.12082711 0 0 Z M-25.375 24.375 C-26.39207031 24.81070313 -27.40914062 25.24640625 -28.45703125 25.6953125 C-35.59907656 28.98334845 -41.52883302 33.14421902 -47.375 38.375 C-48.15875 39.07625 -48.9425 39.7775 -49.75 40.5 C-62.58660656 52.64273593 -70.87946018 69.66944152 -71.87890625 87.3828125 C-72.36239614 109.4716993 -67.09914779 127.70133908 -51.70214844 144.14453125 C-37.26625012 158.90340221 -18.98347312 166.68288877 1.5 166.9375 C11.69557384 166.87429123 20.2685953 165.35935661 29.625 161.375 C30.71039063 160.91738281 31.79578125 160.45976562 32.9140625 159.98828125 C39.97236709 156.72716584 45.82167156 152.5188593 51.625 147.375 C52.23859375 146.85550781 52.8521875 146.33601563 53.484375 145.80078125 C65.61069742 134.75915281 73.76010269 117.17617189 74.77832031 100.9284668 C75.6808643 80.59737935 72.52347772 62.40755098 58.61669922 46.55859375 C56.35390387 44.09093308 54.00483145 41.73051201 51.625 39.375 C50.97917969 38.70726562 50.33335937 38.03953125 49.66796875 37.3515625 C34.24256129 22.49746643 14.45322929 19.86671868 -5.98046875 20.09765625 C-13.10108 20.3046328 -18.85481071 21.37999151 -25.375 24.375 Z " fill="#020201" transform="translate(254.375,164.625)"/>
<path d="M0 0 C2.8100346 1.79363911 4.50940468 3.01880935 6 6 C6.084915 7.8863912 6.107193 9.77578515 6.09765625 11.6640625 C6.09443359 12.78554687 6.09121094 13.90703125 6.08789062 15.0625 C6.07532227 16.8259375 6.07532227 16.8259375 6.0625 18.625 C6.05798828 19.80835938 6.05347656 20.99171875 6.04882812 22.2109375 C6.03701467 25.14067507 6.02054258 28.07031272 6 31 C6.70084717 30.98428955 7.40169434 30.9685791 8.1237793 30.95239258 C11.31160351 30.88987588 14.49929851 30.85095619 17.6875 30.8125 C18.79029297 30.78736328 19.89308594 30.76222656 21.02929688 30.73632812 C22.09599609 30.72666016 23.16269531 30.71699219 24.26171875 30.70703125 C25.24100342 30.6913208 26.22028809 30.67561035 27.22924805 30.65942383 C30.52251457 31.06422661 32.34115396 32.0417397 35 34 C37.48386059 37.72579089 37.3804212 39.58711402 37 44 C35.30311118 47.81799985 33.86023663 49.49338174 30 51 C27.34277344 51.22705078 27.34277344 51.22705078 24.359375 51.1953125 C23.28945313 51.18886719 22.21953125 51.18242187 21.1171875 51.17578125 C20.00601563 51.15902344 18.89484375 51.14226562 17.75 51.125 C16.62335938 51.11597656 15.49671875 51.10695313 14.3359375 51.09765625 C11.55707635 51.07410658 8.7786461 51.0412168 6 51 C6.02618408 51.73114014 6.05236816 52.46228027 6.0793457 53.21557617 C6.18350144 56.53933082 6.24838621 59.86274194 6.3125 63.1875 C6.3753418 64.91323242 6.3753418 64.91323242 6.43945312 66.67382812 C6.56027032 75.01021478 6.56027032 75.01021478 4.93505859 77.88134766 C2.10448284 80.77013576 -0.35368136 81.92683185 -4.3125 82.375 C-8.90598187 81.90786625 -10.11447985 80.47959782 -13 77 C-13.495 76.505 -13.495 76.505 -14 76 C-14.08737645 74.14630389 -14.10698153 72.28932459 -14.09765625 70.43359375 C-14.09443359 69.30888672 -14.09121094 68.18417969 -14.08789062 67.02539062 C-14.07951172 65.84138672 -14.07113281 64.65738281 -14.0625 63.4375 C-14.05798828 62.24962891 -14.05347656 61.06175781 -14.04882812 59.83789062 C-14.03699675 56.89187774 -14.02051287 53.94596319 -14 51 C-15.05127075 51.02356567 -15.05127075 51.02356567 -16.1237793 51.04760742 C-19.31160351 51.11012412 -22.49929851 51.14904381 -25.6875 51.1875 C-27.34168945 51.22520508 -27.34168945 51.22520508 -29.02929688 51.26367188 C-30.09599609 51.27333984 -31.16269531 51.28300781 -32.26171875 51.29296875 C-33.24100342 51.3086792 -34.22028809 51.32438965 -35.22924805 51.34057617 C-38.49234169 50.93948219 -40.34383369 49.90076159 -43 48 C-45.56570589 44.57905881 -45.43708054 41.15226516 -45 37 C-43.20437595 34.24670979 -41.94745078 32.47372539 -39 31 C-37.1136088 30.915085 -35.22421485 30.892807 -33.3359375 30.90234375 C-32.21445313 30.90556641 -31.09296875 30.90878906 -29.9375 30.91210938 C-28.761875 30.92048828 -27.58625 30.92886719 -26.375 30.9375 C-25.19164062 30.94201172 -24.00828125 30.94652344 -22.7890625 30.95117188 C-19.85932493 30.96298533 -16.92968728 30.97945742 -14 31 C-14.02094727 30.26885986 -14.04189453 29.53771973 -14.06347656 28.78442383 C-14.14680314 25.46058999 -14.19871332 22.13697616 -14.25 18.8125 C-14.28351563 17.66201172 -14.31703125 16.51152344 -14.3515625 15.32617188 C-14.36445313 14.21435547 -14.37734375 13.10253906 -14.390625 11.95703125 C-14.41157227 10.93585205 -14.43251953 9.91467285 -14.45410156 8.86254883 C-13.88121902 5.25123283 -12.50385825 3.61065927 -10 1 C-6.79826746 -0.60086627 -3.47422941 -0.49917089 0 0 Z " fill="#020100" transform="translate(260,217)"/>
<path d="M0 0 C7.7223252 4.17529108 13.60746257 10.93107485 17.3671875 18.80859375 C19.20765692 27.50899463 18.51565627 35.28949083 14.0546875 43.05859375 C8.85880783 50.36961028 2.94533231 55.27391551 -5.9453125 57.05859375 C-16.05376626 57.9509464 -23.11274394 56.25936509 -31.1328125 50.05859375 C-37.44952426 44.12164422 -41.23780174 36.56070821 -41.5703125 27.87109375 C-41.25467883 22.24841025 -39.78055989 17.88970609 -36.9453125 13.05859375 C-36.5946875 12.43210937 -36.2440625 11.805625 -35.8828125 11.16015625 C-28.36586479 -0.79387865 -12.99699824 -4.15421297 0 0 Z " fill="#FC5B7D" transform="translate(442.9453125,54.94140625)"/>
<path d="M0 0 C5.19112426 4.28832004 9.39652954 10.30155144 10.2734375 17.12890625 C10.59715462 24.88566636 8.55154107 30.99291684 3.35546875 36.85546875 C-3.04711501 42.70884668 -9.46986563 44.60793748 -18.0703125 44.33984375 C-25.47328509 43.48109893 -29.9380604 39.75758023 -34.5234375 34.0625 C-39.06257988 27.72211065 -40.07848325 21.61220698 -39 14 C-36.61110832 6.07164935 -31.97077672 1.26199005 -25 -3 C-16.0199239 -7.30295313 -8.06975018 -5.13915669 0 0 Z " fill="#FB5A7D" transform="translate(80,391)"/>
<path d="M0 0 C5.95405517 5.14270593 8.58073517 11.22661651 9.4375 18.9375 C9.17007229 25.11264893 6.49507334 30.28066566 2.5 34.875 C1.675 35.57625 0.85 36.2775 0 37 C-0.639375 37.556875 -1.27875 38.11375 -1.9375 38.6875 C-7.81644473 42.42864665 -14.21273685 42.89554167 -21 42 C-27.96100547 39.66153722 -32.33820318 35.2436739 -36 29 C-38.68326519 23.38953643 -39.19295792 16.70784219 -37.27734375 10.75390625 C-33.70152029 3.09556369 -27.89409397 -1.71841524 -20.0625 -4.75 C-11.99106614 -5.72835562 -6.83703128 -4.53511623 0 0 Z " fill="#00D2F2" transform="translate(154,122)"/>
<path d="M0 0 C5.94150693 3.41916908 10.15327955 7.47102108 12.0703125 14.19140625 C13.00456758 21.81797831 12.92038296 28.9433743 8.0703125 35.19140625 C2.65737495 41.05988804 -3.29786212 44.28387303 -11.3671875 44.62890625 C-17.83162902 44.40782412 -22.16549993 42.75893225 -26.90625 38.35546875 C-33.05496392 31.75129453 -34.42640729 26.1016762 -34.23828125 17.16015625 C-33.60233651 11.04220681 -31.09204535 7.0010163 -26.6171875 2.87890625 C-18.06471677 -3.78512084 -9.6214383 -4.81071915 0 0 Z " fill="#00D2F2" transform="translate(381.9296875,354.80859375)"/>
<path d="M0 0 C3.41625138 2.27750092 3.9648201 3.11807539 5 7 C4.86047013 10.90683627 4.30571578 13.43748296 2.4375 16.875 C-0.42705601 19.37230524 -2.23461092 19.95232461 -5.96875 20.203125 C-9.44087406 19.85591259 -11.4390494 18.25607553 -14 16 C-16.10857453 13.34136255 -16.00023614 12.01298793 -15.9375 8.5625 C-14.82940237 4.35172899 -13.31363542 2.74789278 -10 0 C-6.80429821 -1.59785089 -3.38635924 -0.77115111 0 0 Z " fill="#030303" transform="translate(85,73)"/>
<path d="M0 0 C3.9295493 0.92685276 5.41241975 2.29808529 8.00390625 5.47265625 C8.80206186 8.6480523 8.76446448 11.29214003 8.00390625 14.47265625 C5.48556152 18.13570313 3.80106814 19.22626076 -0.43359375 20.53515625 C-4.82766964 20.4580672 -6.65939372 19.25323961 -9.99609375 16.47265625 C-11.74074823 12.98334729 -11.56059927 9.27978648 -10.99609375 5.47265625 C-8.10250338 1.041846 -5.38309693 -0.3983696 0 0 Z " fill="#060606" transform="translate(140.99609375,365.52734375)"/>
</svg>
